<?xml version="1.0" encoding="utf-8" standalone="no"?>
<!DOCTYPE svg PUBLIC "-//W3C//DTD SVG 1.1//EN"
  "http://www.w3.org/Graphics/SVG/1.1/DTD/svg11.dtd">
<svg xmlns:xlink="http://www.w3.org/1999/xlink" width="576pt" height="288pt" viewBox="0 0 576 288" xmlns="http://www.w3.org/2000/svg" version="1.1">
 <metadata>
  <rdf:RDF xmlns:dc="http://purl.org/dc/elements/1.1/" xmlns:cc="http://creativecommons.org/ns#" xmlns:rdf="http://www.w3.org/1999/02/22-rdf-syntax-ns#">
   <cc:Work>
    <dc:type rdf:resource="http://purl.org/dc/dcmitype/StillImage"/>
    <dc:date>2026-06-30T13:07:09.462361</dc:date>
    <dc:format>image/svg+xml</dc:format>
    <dc:creator>
     <cc:Agent>
      <dc:title>Matplotlib v3.10.8, https://matplotlib.org/</dc:title>
     </cc:Agent>
    </dc:creator>
   </cc:Work>
  </rdf:RDF>
 </metadata>
 <defs>
  <style type="text/css">*{stroke-linejoin: round; stroke-linecap: butt}</style>
 </defs>
 <g id="figure_1">
  <g id="patch_1">
   <path d="M 0 288 
L 576 288 
L 576 0 
L 0 0 
z
" style="fill: #ffffff"/>
  </g>
  <g id="axes_1">
   <g id="patch_2">
    <path d="M 295.199101 44.64 
C 295.199101 44.64 295.199101 44.64 295.199101 44.64 
L 295.199101 145.440052 
z
" style="fill: #1f77b4"/>
   </g>
   <g id="patch_3">
    <path d="M 295.199097 44.64 
C 295.199097 44.64 295.199097 44.64 295.199097 44.64 
L 295.199101 145.440052 
z
" style="fill: #ff7f0e"/>
   </g>
   <g id="patch_4">
    <path d="M 295.199097 44.64 
C 295.199097 44.64 295.199097 44.64 295.199097 44.64 
L 295.199101 145.440052 
z
" style="fill: #2ca02c"/>
   </g>
   <g id="patch_5">
    <path d="M 295.199097 44.64 
C 295.199097 44.64 295.199097 44.64 295.199097 44.64 
L 295.199101 145.440052 
z
" style="fill: #d62728"/>
   </g>
   <g id="patch_6">
    <path d="M 295.199097 44.64 
C 286.105082 44.64 277.052759 45.870668 268.288805 48.298471 
C 259.52485 50.726275 251.129612 54.328955 243.331885 59.008332 
L 295.199101 145.440052 
z
" style="fill: #9467bd"/>
   </g>
   <g id="patch_7">
    <path d="M 243.331885 59.008332 
C 221.677486 72.003019 205.678008 92.67264 198.525881 116.892925 
C 191.373753 141.113208 193.578553 167.158458 204.700355 189.831803 
L 295.199101 145.440052 
z
" style="fill: #8c564b"/>
   </g>
   <g id="patch_8">
    <path d="M 204.700355 189.831803 
C 211.351012 203.390088 220.964337 215.282076 232.827828 224.62638 
C 244.691319 233.970683 258.504438 240.530593 273.243456 243.81993 
C 287.982472 247.109266 303.27404 247.044691 317.984754 243.631009 
C 332.695469 240.217322 346.452693 233.541004 358.236853 224.096851 
C 370.021012 214.652698 379.533562 202.679967 386.069487 189.066004 
C 392.605413 175.452041 395.999147 160.541682 395.999153 145.440082 
C 395.999153 130.338481 392.605431 115.428122 386.069511 101.814153 
C 379.533592 88.200184 370.021054 76.227447 358.236901 66.783288 
L 295.199101 145.440052 
z
" style="fill: #e377c2"/>
   </g>
   <g id="patch_9">
    <path d="M 358.236901 66.783288 
C 358.236901 66.783288 358.236901 66.783288 358.236901 66.783288 
L 295.199101 145.440052 
z
" style="fill: #7f7f7f"/>
   </g>
   <g id="patch_10">
    <path d="M 358.236901 66.783288 
C 354.692794 63.94294 350.960765 61.34537 347.066336 59.008344 
C 343.171906 56.671317 339.123974 54.600169 334.950217 52.809067 
L 295.199101 145.440052 
z
" style="fill: #bcbd22"/>
   </g>
   <g id="patch_11">
    <path d="M 334.950217 52.809067 
C 334.950217 52.809067 334.950217 52.809067 334.950217 52.809067 
L 295.199101 145.440052 
z
" style="fill: #17becf"/>
   </g>
   <g id="patch_12">
    <path d="M 334.950217 52.809067 
C 328.686608 50.12114 322.166487 48.075437 315.49002 46.703385 
C 308.813554 45.331334 302.015106 44.64 295.199115 44.64 
L 295.199101 145.440052 
z
" style="fill: #1f77b4"/>
   </g>
   <g id="patch_13">
    <path d="M 295.199115 44.64 
C 295.199115 44.64 295.199115 44.64 295.199115 44.64 
L 295.199101 145.440052 
z
" style="fill: #ff7f0e"/>
   </g>
   <g id="patch_14">
    <path d="M 295.199115 44.64 
C 295.199115 44.64 295.199115 44.64 295.199115 44.64 
L 295.199101 145.440052 
z
" style="fill: #2ca02c"/>
   </g>
   <g id="matplotlib.axis_1"/>
   <g id="matplotlib.axis_2"/>
   <g id="text_1">
    <!--  inspection -->
    <g transform="translate(210.93995 41.343693) scale(0.1 -0.1)">
     <defs>
      <path id="DejaVuSans-20" transform="scale(0.015625)"/>
      <path id="DejaVuSans-69" d="M 603 3500 
L 1178 3500 
L 1178 0 
L 603 0 
L 603 3500 
z
M 603 4863 
L 1178 4863 
L 1178 4134 
L 603 4134 
L 603 4863 
z
" transform="scale(0.015625)"/>
      <path id="DejaVuSans-6e" d="M 3513 2113 
L 3513 0 
L 2938 0 
L 2938 2094 
Q 2938 2591 2744 2837 
Q 2550 3084 2163 3084 
Q 1697 3084 1428 2787 
Q 1159 2491 1159 1978 
L 1159 0 
L 581 0 
L 581 3500 
L 1159 3500 
L 1159 2956 
Q 1366 3272 1645 3428 
Q 1925 3584 2291 3584 
Q 2894 3584 3203 3211 
Q 3513 2838 3513 2113 
z
" transform="scale(0.015625)"/>
      <path id="DejaVuSans-73" d="M 2834 3397 
L 2834 2853 
Q 2591 2978 2328 3040 
Q 2066 3103 1784 3103 
Q 1356 3103 1142 2972 
Q 928 2841 928 2578 
Q 928 2378 1081 2264 
Q 1234 2150 1697 2047 
L 1894 2003 
Q 2506 1872 2764 1633 
Q 3022 1394 3022 966 
Q 3022 478 2636 193 
Q 2250 -91 1575 -91 
Q 1294 -91 989 -36 
Q 684 19 347 128 
L 347 722 
Q 666 556 975 473 
Q 1284 391 1588 391 
Q 1994 391 2212 530 
Q 2431 669 2431 922 
Q 2431 1156 2273 1281 
Q 2116 1406 1581 1522 
L 1381 1569 
Q 847 1681 609 1914 
Q 372 2147 372 2553 
Q 372 3047 722 3315 
Q 1072 3584 1716 3584 
Q 2034 3584 2315 3537 
Q 2597 3491 2834 3397 
z
" transform="scale(0.015625)"/>
      <path id="DejaVuSans-70" d="M 1159 525 
L 1159 -1331 
L 581 -1331 
L 581 3500 
L 1159 3500 
L 1159 2969 
Q 1341 3281 1617 3432 
Q 1894 3584 2278 3584 
Q 2916 3584 3314 3078 
Q 3713 2572 3713 1747 
Q 3713 922 3314 415 
Q 2916 -91 2278 -91 
Q 1894 -91 1617 61 
Q 1341 213 1159 525 
z
M 3116 1747 
Q 3116 2381 2855 2742 
Q 2594 3103 2138 3103 
Q 1681 3103 1420 2742 
Q 1159 2381 1159 1747 
Q 1159 1113 1420 752 
Q 1681 391 2138 391 
Q 2594 391 2855 752 
Q 3116 1113 3116 1747 
z
" transform="scale(0.015625)"/>
      <path id="DejaVuSans-65" d="M 3597 1894 
L 3597 1613 
L 953 1613 
Q 991 1019 1311 708 
Q 1631 397 2203 397 
Q 2534 397 2845 478 
Q 3156 559 3463 722 
L 3463 178 
Q 3153 47 2828 -22 
Q 2503 -91 2169 -91 
Q 1331 -91 842 396 
Q 353 884 353 1716 
Q 353 2575 817 3079 
Q 1281 3584 2069 3584 
Q 2775 3584 3186 3129 
Q 3597 2675 3597 1894 
z
M 3022 2063 
Q 3016 2534 2758 2815 
Q 2500 3097 2075 3097 
Q 1594 3097 1305 2825 
Q 1016 2553 972 2059 
L 3022 2063 
z
" transform="scale(0.015625)"/>
      <path id="DejaVuSans-63" d="M 3122 3366 
L 3122 2828 
Q 2878 2963 2633 3030 
Q 2388 3097 2138 3097 
Q 1578 3097 1268 2742 
Q 959 2388 959 1747 
Q 959 1106 1268 751 
Q 1578 397 2138 397 
Q 2388 397 2633 464 
Q 2878 531 3122 666 
L 3122 134 
Q 2881 22 2623 -34 
Q 2366 -91 2075 -91 
Q 1284 -91 818 406 
Q 353 903 353 1747 
Q 353 2603 823 3093 
Q 1294 3584 2113 3584 
Q 2378 3584 2631 3529 
Q 2884 3475 3122 3366 
z
" transform="scale(0.015625)"/>
      <path id="DejaVuSans-74" d="M 1172 4494 
L 1172 3500 
L 2356 3500 
L 2356 3053 
L 1172 3053 
L 1172 1153 
Q 1172 725 1289 603 
Q 1406 481 1766 481 
L 2356 481 
L 2356 0 
L 1766 0 
Q 1100 0 847 248 
Q 594 497 594 1153 
L 594 3053 
L 172 3053 
L 172 3500 
L 594 3500 
L 594 4494 
L 1172 4494 
z
" transform="scale(0.015625)"/>
      <path id="DejaVuSans-6f" d="M 1959 3097 
Q 1497 3097 1228 2736 
Q 959 2375 959 1747 
Q 959 1119 1226 758 
Q 1494 397 1959 397 
Q 2419 397 2687 759 
Q 2956 1122 2956 1747 
Q 2956 2369 2687 2733 
Q 2419 3097 1959 3097 
z
M 1959 3584 
Q 2709 3584 3137 3096 
Q 3566 2609 3566 1747 
Q 3566 888 3137 398 
Q 2709 -91 1959 -91 
Q 1206 -91 779 398 
Q 353 888 353 1747 
Q 353 2609 779 3096 
Q 1206 3584 1959 3584 
z
" transform="scale(0.015625)"/>
     </defs>
     <use xlink:href="#DejaVuSans-20"/>
     <use xlink:href="#DejaVuSans-69" transform="translate(31.787109 0)"/>
     <use xlink:href="#DejaVuSans-6e" transform="translate(59.570312 0)"/>
     <use xlink:href="#DejaVuSans-73" transform="translate(122.949219 0)"/>
     <use xlink:href="#DejaVuSans-70" transform="translate(175.048828 0)"/>
     <use xlink:href="#DejaVuSans-65" transform="translate(238.525391 0)"/>
     <use xlink:href="#DejaVuSans-63" transform="translate(300.048828 0)"/>
     <use xlink:href="#DejaVuSans-74" transform="translate(355.029297 0)"/>
     <use xlink:href="#DejaVuSans-69" transform="translate(394.238281 0)"/>
     <use xlink:href="#DejaVuSans-6f" transform="translate(422.021484 0)"/>
     <use xlink:href="#DejaVuSans-6e" transform="translate(483.203125 0)"/>
    </g>
   </g>
   <g id="text_2">
    <!-- 8.6% -->
    <g transform="translate(267.959166 84.883481) scale(0.08 -0.08)">
     <defs>
      <path id="DejaVuSans-Bold-38" d="M 2228 2088 
Q 1891 2088 1709 1903 
Q 1528 1719 1528 1375 
Q 1528 1031 1709 848 
Q 1891 666 2228 666 
Q 2563 666 2741 848 
Q 2919 1031 2919 1375 
Q 2919 1722 2741 1905 
Q 2563 2088 2228 2088 
z
M 1350 2484 
Q 925 2613 709 2878 
Q 494 3144 494 3541 
Q 494 4131 934 4440 
Q 1375 4750 2228 4750 
Q 3075 4750 3515 4442 
Q 3956 4134 3956 3541 
Q 3956 3144 3739 2878 
Q 3522 2613 3097 2484 
Q 3572 2353 3814 2058 
Q 4056 1763 4056 1313 
Q 4056 619 3595 264 
Q 3134 -91 2228 -91 
Q 1319 -91 855 264 
Q 391 619 391 1313 
Q 391 1763 633 2058 
Q 875 2353 1350 2484 
z
M 1631 3419 
Q 1631 3141 1786 2991 
Q 1941 2841 2228 2841 
Q 2509 2841 2662 2991 
Q 2816 3141 2816 3419 
Q 2816 3697 2662 3845 
Q 2509 3994 2228 3994 
Q 1941 3994 1786 3844 
Q 1631 3694 1631 3419 
z
" transform="scale(0.015625)"/>
      <path id="DejaVuSans-Bold-2e" d="M 653 1209 
L 1778 1209 
L 1778 0 
L 653 0 
L 653 1209 
z
" transform="scale(0.015625)"/>
      <path id="DejaVuSans-Bold-36" d="M 2316 2303 
Q 2000 2303 1842 2098 
Q 1684 1894 1684 1484 
Q 1684 1075 1842 870 
Q 2000 666 2316 666 
Q 2634 666 2792 870 
Q 2950 1075 2950 1484 
Q 2950 1894 2792 2098 
Q 2634 2303 2316 2303 
z
M 3803 4544 
L 3803 3681 
Q 3506 3822 3243 3889 
Q 2981 3956 2731 3956 
Q 2194 3956 1894 3657 
Q 1594 3359 1544 2772 
Q 1750 2925 1990 3001 
Q 2231 3078 2516 3078 
Q 3231 3078 3670 2659 
Q 4109 2241 4109 1563 
Q 4109 813 3618 361 
Q 3128 -91 2303 -91 
Q 1394 -91 895 523 
Q 397 1138 397 2266 
Q 397 3422 980 4083 
Q 1563 4744 2578 4744 
Q 2900 4744 3203 4694 
Q 3506 4644 3803 4544 
z
" transform="scale(0.015625)"/>
      <path id="DejaVuSans-Bold-25" d="M 4959 1925 
Q 4738 1925 4616 1733 
Q 4494 1541 4494 1184 
Q 4494 825 4614 633 
Q 4734 441 4959 441 
Q 5184 441 5303 633 
Q 5422 825 5422 1184 
Q 5422 1541 5301 1733 
Q 5181 1925 4959 1925 
z
M 4959 2450 
Q 5541 2450 5875 2112 
Q 6209 1775 6209 1184 
Q 6209 594 5875 251 
Q 5541 -91 4959 -91 
Q 4378 -91 4042 251 
Q 3706 594 3706 1184 
Q 3706 1772 4042 2111 
Q 4378 2450 4959 2450 
z
M 2094 -91 
L 1403 -91 
L 4319 4750 
L 5013 4750 
L 2094 -91 
z
M 1453 4750 
Q 2034 4750 2367 4411 
Q 2700 4072 2700 3481 
Q 2700 2891 2367 2550 
Q 2034 2209 1453 2209 
Q 872 2209 539 2550 
Q 206 2891 206 3481 
Q 206 4072 539 4411 
Q 872 4750 1453 4750 
z
M 1453 4225 
Q 1228 4225 1106 4031 
Q 984 3838 984 3481 
Q 984 3122 1106 2926 
Q 1228 2731 1453 2731 
Q 1678 2731 1798 2926 
Q 1919 3122 1919 3481 
Q 1919 3838 1797 4031 
Q 1675 4225 1453 4225 
z
" transform="scale(0.015625)"/>
     </defs>
     <use xlink:href="#DejaVuSans-Bold-38"/>
     <use xlink:href="#DejaVuSans-Bold-2e" transform="translate(69.580078 0)"/>
     <use xlink:href="#DejaVuSans-Bold-36" transform="translate(107.568359 0)"/>
     <use xlink:href="#DejaVuSans-Bold-25" transform="translate(177.148438 0)"/>
    </g>
    <!-- (8) -->
    <g transform="translate(272.613541 93.841731) scale(0.08 -0.08)">
     <defs>
      <path id="DejaVuSans-Bold-28" d="M 2413 -844 
L 1484 -844 
Q 1006 -72 778 623 
Q 550 1319 550 2003 
Q 550 2688 779 3389 
Q 1009 4091 1484 4856 
L 2413 4856 
Q 2013 4116 1813 3408 
Q 1613 2700 1613 2009 
Q 1613 1319 1811 609 
Q 2009 -100 2413 -844 
z
" transform="scale(0.015625)"/>
      <path id="DejaVuSans-Bold-29" d="M 513 -844 
Q 913 -100 1113 609 
Q 1313 1319 1313 2009 
Q 1313 2700 1113 3408 
Q 913 4116 513 4856 
L 1441 4856 
Q 1916 4091 2145 3389 
Q 2375 2688 2375 2003 
Q 2375 1319 2147 623 
Q 1919 -72 1441 -844 
L 513 -844 
z
" transform="scale(0.015625)"/>
     </defs>
     <use xlink:href="#DejaVuSans-Bold-28"/>
     <use xlink:href="#DejaVuSans-Bold-38" transform="translate(45.703125 0)"/>
     <use xlink:href="#DejaVuSans-Bold-29" transform="translate(115.283203 0)"/>
    </g>
   </g>
   <g id="text_3">
    <!--  interface-test -->
    <g transform="translate(118.269495 116.797585) scale(0.1 -0.1)">
     <defs>
      <path id="DejaVuSans-72" d="M 2631 2963 
Q 2534 3019 2420 3045 
Q 2306 3072 2169 3072 
Q 1681 3072 1420 2755 
Q 1159 2438 1159 1844 
L 1159 0 
L 581 0 
L 581 3500 
L 1159 3500 
L 1159 2956 
Q 1341 3275 1631 3429 
Q 1922 3584 2338 3584 
Q 2397 3584 2469 3576 
Q 2541 3569 2628 3553 
L 2631 2963 
z
" transform="scale(0.015625)"/>
      <path id="DejaVuSans-66" d="M 2375 4863 
L 2375 4384 
L 1825 4384 
Q 1516 4384 1395 4259 
Q 1275 4134 1275 3809 
L 1275 3500 
L 2222 3500 
L 2222 3053 
L 1275 3053 
L 1275 0 
L 697 0 
L 697 3053 
L 147 3053 
L 147 3500 
L 697 3500 
L 697 3744 
Q 697 4328 969 4595 
Q 1241 4863 1831 4863 
L 2375 4863 
z
" transform="scale(0.015625)"/>
      <path id="DejaVuSans-61" d="M 2194 1759 
Q 1497 1759 1228 1600 
Q 959 1441 959 1056 
Q 959 750 1161 570 
Q 1363 391 1709 391 
Q 2188 391 2477 730 
Q 2766 1069 2766 1631 
L 2766 1759 
L 2194 1759 
z
M 3341 1997 
L 3341 0 
L 2766 0 
L 2766 531 
Q 2569 213 2275 61 
Q 1981 -91 1556 -91 
Q 1019 -91 701 211 
Q 384 513 384 1019 
Q 384 1609 779 1909 
Q 1175 2209 1959 2209 
L 2766 2209 
L 2766 2266 
Q 2766 2663 2505 2880 
Q 2244 3097 1772 3097 
Q 1472 3097 1187 3025 
Q 903 2953 641 2809 
L 641 3341 
Q 956 3463 1253 3523 
Q 1550 3584 1831 3584 
Q 2591 3584 2966 3190 
Q 3341 2797 3341 1997 
z
" transform="scale(0.015625)"/>
      <path id="DejaVuSans-2d" d="M 313 2009 
L 1997 2009 
L 1997 1497 
L 313 1497 
L 313 2009 
z
" transform="scale(0.015625)"/>
     </defs>
     <use xlink:href="#DejaVuSans-20"/>
     <use xlink:href="#DejaVuSans-69" transform="translate(31.787109 0)"/>
     <use xlink:href="#DejaVuSans-6e" transform="translate(59.570312 0)"/>
     <use xlink:href="#DejaVuSans-74" transform="translate(122.949219 0)"/>
     <use xlink:href="#DejaVuSans-65" transform="translate(162.158203 0)"/>
     <use xlink:href="#DejaVuSans-72" transform="translate(223.681641 0)"/>
     <use xlink:href="#DejaVuSans-66" transform="translate(264.794922 0)"/>
     <use xlink:href="#DejaVuSans-61" transform="translate(300 0)"/>
     <use xlink:href="#DejaVuSans-63" transform="translate(361.279297 0)"/>
     <use xlink:href="#DejaVuSans-65" transform="translate(416.259766 0)"/>
     <use xlink:href="#DejaVuSans-2d" transform="translate(477.783203 0)"/>
     <use xlink:href="#DejaVuSans-74" transform="translate(513.867188 0)"/>
     <use xlink:href="#DejaVuSans-65" transform="translate(553.076172 0)"/>
     <use xlink:href="#DejaVuSans-73" transform="translate(614.599609 0)"/>
     <use xlink:href="#DejaVuSans-74" transform="translate(666.699219 0)"/>
    </g>
   </g>
   <g id="text_4">
    <!-- 23.7% -->
    <g transform="translate(223.318293 126.04015) scale(0.08 -0.08)">
     <defs>
      <path id="DejaVuSans-Bold-32" d="M 1844 884 
L 3897 884 
L 3897 0 
L 506 0 
L 506 884 
L 2209 2388 
Q 2438 2594 2547 2791 
Q 2656 2988 2656 3200 
Q 2656 3528 2436 3728 
Q 2216 3928 1850 3928 
Q 1569 3928 1234 3808 
Q 900 3688 519 3450 
L 519 4475 
Q 925 4609 1322 4679 
Q 1719 4750 2100 4750 
Q 2938 4750 3402 4381 
Q 3866 4013 3866 3353 
Q 3866 2972 3669 2642 
Q 3472 2313 2841 1759 
L 1844 884 
z
" transform="scale(0.015625)"/>
      <path id="DejaVuSans-Bold-33" d="M 2981 2516 
Q 3453 2394 3698 2092 
Q 3944 1791 3944 1325 
Q 3944 631 3412 270 
Q 2881 -91 1863 -91 
Q 1503 -91 1142 -33 
Q 781 25 428 141 
L 428 1069 
Q 766 900 1098 814 
Q 1431 728 1753 728 
Q 2231 728 2486 893 
Q 2741 1059 2741 1369 
Q 2741 1688 2480 1852 
Q 2219 2016 1709 2016 
L 1228 2016 
L 1228 2791 
L 1734 2791 
Q 2188 2791 2409 2933 
Q 2631 3075 2631 3366 
Q 2631 3634 2415 3781 
Q 2200 3928 1806 3928 
Q 1516 3928 1219 3862 
Q 922 3797 628 3669 
L 628 4550 
Q 984 4650 1334 4700 
Q 1684 4750 2022 4750 
Q 2931 4750 3382 4451 
Q 3834 4153 3834 3553 
Q 3834 3144 3618 2883 
Q 3403 2622 2981 2516 
z
" transform="scale(0.015625)"/>
      <path id="DejaVuSans-Bold-37" d="M 428 4666 
L 3944 4666 
L 3944 3988 
L 2125 0 
L 953 0 
L 2675 3781 
L 428 3781 
L 428 4666 
z
" transform="scale(0.015625)"/>
     </defs>
     <use xlink:href="#DejaVuSans-Bold-32"/>
     <use xlink:href="#DejaVuSans-Bold-33" transform="translate(69.580078 0)"/>
     <use xlink:href="#DejaVuSans-Bold-2e" transform="translate(139.160156 0)"/>
     <use xlink:href="#DejaVuSans-Bold-37" transform="translate(177.148438 0)"/>
     <use xlink:href="#DejaVuSans-Bold-25" transform="translate(246.728516 0)"/>
    </g>
    <!-- (22) -->
    <g transform="translate(227.972668 134.9984) scale(0.08 -0.08)">
     <use xlink:href="#DejaVuSans-Bold-28"/>
     <use xlink:href="#DejaVuSans-Bold-32" transform="translate(45.703125 0)"/>
     <use xlink:href="#DejaVuSans-Bold-32" transform="translate(115.283203 0)"/>
     <use xlink:href="#DejaVuSans-Bold-29" transform="translate(184.863281 0)"/>
    </g>
   </g>
   <g id="text_5">
    <!--  requirements-based -->
    <g transform="translate(364.540673 234.721871) scale(0.1 -0.1)">
     <defs>
      <path id="DejaVuSans-71" d="M 947 1747 
Q 947 1113 1208 752 
Q 1469 391 1925 391 
Q 2381 391 2643 752 
Q 2906 1113 2906 1747 
Q 2906 2381 2643 2742 
Q 2381 3103 1925 3103 
Q 1469 3103 1208 2742 
Q 947 2381 947 1747 
z
M 2906 525 
Q 2725 213 2448 61 
Q 2172 -91 1784 -91 
Q 1150 -91 751 415 
Q 353 922 353 1747 
Q 353 2572 751 3078 
Q 1150 3584 1784 3584 
Q 2172 3584 2448 3432 
Q 2725 3281 2906 2969 
L 2906 3500 
L 3481 3500 
L 3481 -1331 
L 2906 -1331 
L 2906 525 
z
" transform="scale(0.015625)"/>
      <path id="DejaVuSans-75" d="M 544 1381 
L 544 3500 
L 1119 3500 
L 1119 1403 
Q 1119 906 1312 657 
Q 1506 409 1894 409 
Q 2359 409 2629 706 
Q 2900 1003 2900 1516 
L 2900 3500 
L 3475 3500 
L 3475 0 
L 2900 0 
L 2900 538 
Q 2691 219 2414 64 
Q 2138 -91 1772 -91 
Q 1169 -91 856 284 
Q 544 659 544 1381 
z
M 1991 3584 
L 1991 3584 
z
" transform="scale(0.015625)"/>
      <path id="DejaVuSans-6d" d="M 3328 2828 
Q 3544 3216 3844 3400 
Q 4144 3584 4550 3584 
Q 5097 3584 5394 3201 
Q 5691 2819 5691 2113 
L 5691 0 
L 5113 0 
L 5113 2094 
Q 5113 2597 4934 2840 
Q 4756 3084 4391 3084 
Q 3944 3084 3684 2787 
Q 3425 2491 3425 1978 
L 3425 0 
L 2847 0 
L 2847 2094 
Q 2847 2600 2669 2842 
Q 2491 3084 2119 3084 
Q 1678 3084 1418 2786 
Q 1159 2488 1159 1978 
L 1159 0 
L 581 0 
L 581 3500 
L 1159 3500 
L 1159 2956 
Q 1356 3278 1631 3431 
Q 1906 3584 2284 3584 
Q 2666 3584 2933 3390 
Q 3200 3197 3328 2828 
z
" transform="scale(0.015625)"/>
      <path id="DejaVuSans-62" d="M 3116 1747 
Q 3116 2381 2855 2742 
Q 2594 3103 2138 3103 
Q 1681 3103 1420 2742 
Q 1159 2381 1159 1747 
Q 1159 1113 1420 752 
Q 1681 391 2138 391 
Q 2594 391 2855 752 
Q 3116 1113 3116 1747 
z
M 1159 2969 
Q 1341 3281 1617 3432 
Q 1894 3584 2278 3584 
Q 2916 3584 3314 3078 
Q 3713 2572 3713 1747 
Q 3713 922 3314 415 
Q 2916 -91 2278 -91 
Q 1894 -91 1617 61 
Q 1341 213 1159 525 
L 1159 0 
L 581 0 
L 581 4863 
L 1159 4863 
L 1159 2969 
z
" transform="scale(0.015625)"/>
      <path id="DejaVuSans-64" d="M 2906 2969 
L 2906 4863 
L 3481 4863 
L 3481 0 
L 2906 0 
L 2906 525 
Q 2725 213 2448 61 
Q 2172 -91 1784 -91 
Q 1150 -91 751 415 
Q 353 922 353 1747 
Q 353 2572 751 3078 
Q 1150 3584 1784 3584 
Q 2172 3584 2448 3432 
Q 2725 3281 2906 2969 
z
M 947 1747 
Q 947 1113 1208 752 
Q 1469 391 1925 391 
Q 2381 391 2643 752 
Q 2906 1113 2906 1747 
Q 2906 2381 2643 2742 
Q 2381 3103 1925 3103 
Q 1469 3103 1208 2742 
Q 947 2381 947 1747 
z
" transform="scale(0.015625)"/>
     </defs>
     <use xlink:href="#DejaVuSans-20"/>
     <use xlink:href="#DejaVuSans-72" transform="translate(31.787109 0)"/>
     <use xlink:href="#DejaVuSans-65" transform="translate(70.650391 0)"/>
     <use xlink:href="#DejaVuSans-71" transform="translate(132.173828 0)"/>
     <use xlink:href="#DejaVuSans-75" transform="translate(195.650391 0)"/>
     <use xlink:href="#DejaVuSans-69" transform="translate(259.029297 0)"/>
     <use xlink:href="#DejaVuSans-72" transform="translate(286.8125 0)"/>
     <use xlink:href="#DejaVuSans-65" transform="translate(325.675781 0)"/>
     <use xlink:href="#DejaVuSans-6d" transform="translate(387.199219 0)"/>
     <use xlink:href="#DejaVuSans-65" transform="translate(484.611328 0)"/>
     <use xlink:href="#DejaVuSans-6e" transform="translate(546.134766 0)"/>
     <use xlink:href="#DejaVuSans-74" transform="translate(609.513672 0)"/>
     <use xlink:href="#DejaVuSans-73" transform="translate(648.722656 0)"/>
     <use xlink:href="#DejaVuSans-2d" transform="translate(700.822266 0)"/>
     <use xlink:href="#DejaVuSans-62" transform="translate(736.90625 0)"/>
     <use xlink:href="#DejaVuSans-61" transform="translate(800.382812 0)"/>
     <use xlink:href="#DejaVuSans-73" transform="translate(861.662109 0)"/>
     <use xlink:href="#DejaVuSans-65" transform="translate(913.761719 0)"/>
     <use xlink:href="#DejaVuSans-64" transform="translate(975.285156 0)"/>
    </g>
   </g>
   <g id="text_6">
    <!-- 57.0% -->
    <g transform="translate(319.144902 190.362487) scale(0.08 -0.08)">
     <defs>
      <path id="DejaVuSans-Bold-35" d="M 678 4666 
L 3669 4666 
L 3669 3781 
L 1638 3781 
L 1638 3059 
Q 1775 3097 1914 3117 
Q 2053 3138 2203 3138 
Q 3056 3138 3531 2711 
Q 4006 2284 4006 1522 
Q 4006 766 3489 337 
Q 2972 -91 2053 -91 
Q 1656 -91 1267 -14 
Q 878 63 494 219 
L 494 1166 
Q 875 947 1217 837 
Q 1559 728 1863 728 
Q 2300 728 2551 942 
Q 2803 1156 2803 1522 
Q 2803 1891 2551 2103 
Q 2300 2316 1863 2316 
Q 1603 2316 1309 2248 
Q 1016 2181 678 2041 
L 678 4666 
z
" transform="scale(0.015625)"/>
      <path id="DejaVuSans-Bold-30" d="M 2944 2338 
Q 2944 3213 2780 3570 
Q 2616 3928 2228 3928 
Q 1841 3928 1675 3570 
Q 1509 3213 1509 2338 
Q 1509 1453 1675 1090 
Q 1841 728 2228 728 
Q 2613 728 2778 1090 
Q 2944 1453 2944 2338 
z
M 4147 2328 
Q 4147 1169 3647 539 
Q 3147 -91 2228 -91 
Q 1306 -91 806 539 
Q 306 1169 306 2328 
Q 306 3491 806 4120 
Q 1306 4750 2228 4750 
Q 3147 4750 3647 4120 
Q 4147 3491 4147 2328 
z
" transform="scale(0.015625)"/>
     </defs>
     <use xlink:href="#DejaVuSans-Bold-35"/>
     <use xlink:href="#DejaVuSans-Bold-37" transform="translate(69.580078 0)"/>
     <use xlink:href="#DejaVuSans-Bold-2e" transform="translate(139.160156 0)"/>
     <use xlink:href="#DejaVuSans-Bold-30" transform="translate(177.148438 0)"/>
     <use xlink:href="#DejaVuSans-Bold-25" transform="translate(246.728516 0)"/>
    </g>
    <!-- (53) -->
    <g transform="translate(323.799277 199.320737) scale(0.08 -0.08)">
     <use xlink:href="#DejaVuSans-Bold-28"/>
     <use xlink:href="#DejaVuSans-Bold-35" transform="translate(45.703125 0)"/>
     <use xlink:href="#DejaVuSans-Bold-33" transform="translate(115.283203 0)"/>
     <use xlink:href="#DejaVuSans-Bold-29" transform="translate(184.863281 0)"/>
    </g>
   </g>
   <g id="text_7">
    <!--  fault-injection -->
    <g transform="translate(317.519062 39.589085) scale(0.1 -0.1)">
     <defs>
      <path id="DejaVuSans-6c" d="M 603 4863 
L 1178 4863 
L 1178 0 
L 603 0 
L 603 4863 
z
" transform="scale(0.015625)"/>
      <path id="DejaVuSans-6a" d="M 603 3500 
L 1178 3500 
L 1178 -63 
Q 1178 -731 923 -1031 
Q 669 -1331 103 -1331 
L -116 -1331 
L -116 -844 
L 38 -844 
Q 366 -844 484 -692 
Q 603 -541 603 -63 
L 603 3500 
z
M 603 4863 
L 1178 4863 
L 1178 4134 
L 603 4134 
L 603 4863 
z
" transform="scale(0.015625)"/>
     </defs>
     <use xlink:href="#DejaVuSans-20"/>
     <use xlink:href="#DejaVuSans-66" transform="translate(31.787109 0)"/>
     <use xlink:href="#DejaVuSans-61" transform="translate(66.992188 0)"/>
     <use xlink:href="#DejaVuSans-75" transform="translate(128.271484 0)"/>
     <use xlink:href="#DejaVuSans-6c" transform="translate(191.650391 0)"/>
     <use xlink:href="#DejaVuSans-74" transform="translate(219.433594 0)"/>
     <use xlink:href="#DejaVuSans-2d" transform="translate(258.642578 0)"/>
     <use xlink:href="#DejaVuSans-69" transform="translate(294.726562 0)"/>
     <use xlink:href="#DejaVuSans-6e" transform="translate(322.509766 0)"/>
     <use xlink:href="#DejaVuSans-6a" transform="translate(385.888672 0)"/>
     <use xlink:href="#DejaVuSans-65" transform="translate(413.671875 0)"/>
     <use xlink:href="#DejaVuSans-63" transform="translate(475.195312 0)"/>
     <use xlink:href="#DejaVuSans-74" transform="translate(530.175781 0)"/>
     <use xlink:href="#DejaVuSans-69" transform="translate(569.384766 0)"/>
     <use xlink:href="#DejaVuSans-6f" transform="translate(597.167969 0)"/>
     <use xlink:href="#DejaVuSans-6e" transform="translate(658.349609 0)"/>
    </g>
   </g>
   <g id="text_8">
    <!-- 6.5% -->
    <g transform="translate(296.279875 83.926422) scale(0.08 -0.08)">
     <use xlink:href="#DejaVuSans-Bold-36"/>
     <use xlink:href="#DejaVuSans-Bold-2e" transform="translate(69.580078 0)"/>
     <use xlink:href="#DejaVuSans-Bold-35" transform="translate(107.568359 0)"/>
     <use xlink:href="#DejaVuSans-Bold-25" transform="translate(177.148438 0)"/>
    </g>
    <!-- (6) -->
    <g transform="translate(300.93425 92.884672) scale(0.08 -0.08)">
     <use xlink:href="#DejaVuSans-Bold-28"/>
     <use xlink:href="#DejaVuSans-Bold-36" transform="translate(45.703125 0)"/>
     <use xlink:href="#DejaVuSans-Bold-29" transform="translate(115.283203 0)"/>
    </g>
   </g>
   <g id="text_9">
    <!-- Test Types Used In Testcases -->
    <g transform="translate(209.529375 28.56) scale(0.12 -0.12)">
     <defs>
      <path id="DejaVuSans-54" d="M -19 4666 
L 3928 4666 
L 3928 4134 
L 2272 4134 
L 2272 0 
L 1638 0 
L 1638 4134 
L -19 4134 
L -19 4666 
z
" transform="scale(0.015625)"/>
      <path id="DejaVuSans-79" d="M 2059 -325 
Q 1816 -950 1584 -1140 
Q 1353 -1331 966 -1331 
L 506 -1331 
L 506 -850 
L 844 -850 
Q 1081 -850 1212 -737 
Q 1344 -625 1503 -206 
L 1606 56 
L 191 3500 
L 800 3500 
L 1894 763 
L 2988 3500 
L 3597 3500 
L 2059 -325 
z
" transform="scale(0.015625)"/>
      <path id="DejaVuSans-55" d="M 556 4666 
L 1191 4666 
L 1191 1831 
Q 1191 1081 1462 751 
Q 1734 422 2344 422 
Q 2950 422 3222 751 
Q 3494 1081 3494 1831 
L 3494 4666 
L 4128 4666 
L 4128 1753 
Q 4128 841 3676 375 
Q 3225 -91 2344 -91 
Q 1459 -91 1007 375 
Q 556 841 556 1753 
L 556 4666 
z
" transform="scale(0.015625)"/>
      <path id="DejaVuSans-49" d="M 628 4666 
L 1259 4666 
L 1259 0 
L 628 0 
L 628 4666 
z
" transform="scale(0.015625)"/>
     </defs>
     <use xlink:href="#DejaVuSans-54"/>
     <use xlink:href="#DejaVuSans-65" transform="translate(44.083984 0)"/>
     <use xlink:href="#DejaVuSans-73" transform="translate(105.607422 0)"/>
     <use xlink:href="#DejaVuSans-74" transform="translate(157.707031 0)"/>
     <use xlink:href="#DejaVuSans-20" transform="translate(196.916016 0)"/>
     <use xlink:href="#DejaVuSans-54" transform="translate(228.703125 0)"/>
     <use xlink:href="#DejaVuSans-79" transform="translate(274.162109 0)"/>
     <use xlink:href="#DejaVuSans-70" transform="translate(333.341797 0)"/>
     <use xlink:href="#DejaVuSans-65" transform="translate(396.818359 0)"/>
     <use xlink:href="#DejaVuSans-73" transform="translate(458.341797 0)"/>
     <use xlink:href="#DejaVuSans-20" transform="translate(510.441406 0)"/>
     <use xlink:href="#DejaVuSans-55" transform="translate(542.228516 0)"/>
     <use xlink:href="#DejaVuSans-73" transform="translate(615.421875 0)"/>
     <use xlink:href="#DejaVuSans-65" transform="translate(667.521484 0)"/>
     <use xlink:href="#DejaVuSans-64" transform="translate(729.044922 0)"/>
     <use xlink:href="#DejaVuSans-20" transform="translate(792.521484 0)"/>
     <use xlink:href="#DejaVuSans-49" transform="translate(824.308594 0)"/>
     <use xlink:href="#DejaVuSans-6e" transform="translate(853.800781 0)"/>
     <use xlink:href="#DejaVuSans-20" transform="translate(917.179688 0)"/>
     <use xlink:href="#DejaVuSans-54" transform="translate(948.966797 0)"/>
     <use xlink:href="#DejaVuSans-65" transform="translate(993.050781 0)"/>
     <use xlink:href="#DejaVuSans-73" transform="translate(1054.574219 0)"/>
     <use xlink:href="#DejaVuSans-74" transform="translate(1106.673828 0)"/>
     <use xlink:href="#DejaVuSans-63" transform="translate(1145.882812 0)"/>
     <use xlink:href="#DejaVuSans-61" transform="translate(1200.863281 0)"/>
     <use xlink:href="#DejaVuSans-73" transform="translate(1262.142578 0)"/>
     <use xlink:href="#DejaVuSans-65" transform="translate(1314.242188 0)"/>
     <use xlink:href="#DejaVuSans-73" transform="translate(1375.765625 0)"/>
    </g>
   </g>
   <g id="legend_1">
    <g id="patch_15">
     <path d="M 436.12 249.686875 
L 667.52625 249.686875 
Q 669.52625 249.686875 669.52625 247.686875 
L 669.52625 43.193125 
Q 669.52625 41.193125 667.52625 41.193125 
L 436.12 41.193125 
Q 434.12 41.193125 434.12 43.193125 
L 434.12 247.686875 
Q 434.12 249.686875 436.12 249.686875 
z
" style="fill: #ffffff; opacity: 0.8; stroke: #cccccc; stroke-linejoin: miter"/>
    </g>
    <g id="text_10">
     <!-- legend -->
     <g transform="translate(534.76375 52.791563) scale(0.1 -0.1)">
      <defs>
       <path id="DejaVuSans-67" d="M 2906 1791 
Q 2906 2416 2648 2759 
Q 2391 3103 1925 3103 
Q 1463 3103 1205 2759 
Q 947 2416 947 1791 
Q 947 1169 1205 825 
Q 1463 481 1925 481 
Q 2391 481 2648 825 
Q 2906 1169 2906 1791 
z
M 3481 434 
Q 3481 -459 3084 -895 
Q 2688 -1331 1869 -1331 
Q 1566 -1331 1297 -1286 
Q 1028 -1241 775 -1147 
L 775 -588 
Q 1028 -725 1275 -790 
Q 1522 -856 1778 -856 
Q 2344 -856 2625 -561 
Q 2906 -266 2906 331 
L 2906 616 
Q 2728 306 2450 153 
Q 2172 0 1784 0 
Q 1141 0 747 490 
Q 353 981 353 1791 
Q 353 2603 747 3093 
Q 1141 3584 1784 3584 
Q 2172 3584 2450 3431 
Q 2728 3278 2906 2969 
L 2906 3500 
L 3481 3500 
L 3481 434 
z
" transform="scale(0.015625)"/>
      </defs>
      <use xlink:href="#DejaVuSans-6c"/>
      <use xlink:href="#DejaVuSans-65" transform="translate(27.783203 0)"/>
      <use xlink:href="#DejaVuSans-67" transform="translate(89.306641 0)"/>
      <use xlink:href="#DejaVuSans-65" transform="translate(152.783203 0)"/>
      <use xlink:href="#DejaVuSans-6e" transform="translate(214.306641 0)"/>
      <use xlink:href="#DejaVuSans-64" transform="translate(277.685547 0)"/>
     </g>
    </g>
    <g id="patch_16">
     <path d="M 438.12 67.469688 
L 458.12 67.469688 
L 458.12 60.469688 
L 438.12 60.469688 
z
" style="fill: #1f77b4"/>
    </g>
    <g id="text_11">
     <!-- static-code-analysis 0.0% (0) -->
     <g transform="translate(466.12 67.469688) scale(0.1 -0.1)">
      <defs>
       <path id="DejaVuSans-30" d="M 2034 4250 
Q 1547 4250 1301 3770 
Q 1056 3291 1056 2328 
Q 1056 1369 1301 889 
Q 1547 409 2034 409 
Q 2525 409 2770 889 
Q 3016 1369 3016 2328 
Q 3016 3291 2770 3770 
Q 2525 4250 2034 4250 
z
M 2034 4750 
Q 2819 4750 3233 4129 
Q 3647 3509 3647 2328 
Q 3647 1150 3233 529 
Q 2819 -91 2034 -91 
Q 1250 -91 836 529 
Q 422 1150 422 2328 
Q 422 3509 836 4129 
Q 1250 4750 2034 4750 
z
" transform="scale(0.015625)"/>
       <path id="DejaVuSans-2e" d="M 684 794 
L 1344 794 
L 1344 0 
L 684 0 
L 684 794 
z
" transform="scale(0.015625)"/>
       <path id="DejaVuSans-25" d="M 4653 2053 
Q 4381 2053 4226 1822 
Q 4072 1591 4072 1178 
Q 4072 772 4226 539 
Q 4381 306 4653 306 
Q 4919 306 5073 539 
Q 5228 772 5228 1178 
Q 5228 1588 5073 1820 
Q 4919 2053 4653 2053 
z
M 4653 2450 
Q 5147 2450 5437 2106 
Q 5728 1763 5728 1178 
Q 5728 594 5436 251 
Q 5144 -91 4653 -91 
Q 4153 -91 3862 251 
Q 3572 594 3572 1178 
Q 3572 1766 3864 2108 
Q 4156 2450 4653 2450 
z
M 1428 4353 
Q 1159 4353 1004 4120 
Q 850 3888 850 3481 
Q 850 3069 1003 2837 
Q 1156 2606 1428 2606 
Q 1700 2606 1854 2837 
Q 2009 3069 2009 3481 
Q 2009 3884 1853 4118 
Q 1697 4353 1428 4353 
z
M 4250 4750 
L 4750 4750 
L 1831 -91 
L 1331 -91 
L 4250 4750 
z
M 1428 4750 
Q 1922 4750 2215 4408 
Q 2509 4066 2509 3481 
Q 2509 2891 2217 2550 
Q 1925 2209 1428 2209 
Q 931 2209 642 2551 
Q 353 2894 353 3481 
Q 353 4063 643 4406 
Q 934 4750 1428 4750 
z
" transform="scale(0.015625)"/>
       <path id="DejaVuSans-28" d="M 1984 4856 
Q 1566 4138 1362 3434 
Q 1159 2731 1159 2009 
Q 1159 1288 1364 580 
Q 1569 -128 1984 -844 
L 1484 -844 
Q 1016 -109 783 600 
Q 550 1309 550 2009 
Q 550 2706 781 3412 
Q 1013 4119 1484 4856 
L 1984 4856 
z
" transform="scale(0.015625)"/>
       <path id="DejaVuSans-29" d="M 513 4856 
L 1013 4856 
Q 1481 4119 1714 3412 
Q 1947 2706 1947 2009 
Q 1947 1309 1714 600 
Q 1481 -109 1013 -844 
L 513 -844 
Q 928 -128 1133 580 
Q 1338 1288 1338 2009 
Q 1338 2731 1133 3434 
Q 928 4138 513 4856 
z
" transform="scale(0.015625)"/>
      </defs>
      <use xlink:href="#DejaVuSans-73"/>
      <use xlink:href="#DejaVuSans-74" transform="translate(52.099609 0)"/>
      <use xlink:href="#DejaVuSans-61" transform="translate(91.308594 0)"/>
      <use xlink:href="#DejaVuSans-74" transform="translate(152.587891 0)"/>
      <use xlink:href="#DejaVuSans-69" transform="translate(191.796875 0)"/>
      <use xlink:href="#DejaVuSans-63" transform="translate(219.580078 0)"/>
      <use xlink:href="#DejaVuSans-2d" transform="translate(274.560547 0)"/>
      <use xlink:href="#DejaVuSans-63" transform="translate(310.644531 0)"/>
      <use xlink:href="#DejaVuSans-6f" transform="translate(365.625 0)"/>
      <use xlink:href="#DejaVuSans-64" transform="translate(426.806641 0)"/>
      <use xlink:href="#DejaVuSans-65" transform="translate(490.283203 0)"/>
      <use xlink:href="#DejaVuSans-2d" transform="translate(551.806641 0)"/>
      <use xlink:href="#DejaVuSans-61" transform="translate(587.890625 0)"/>
      <use xlink:href="#DejaVuSans-6e" transform="translate(649.169922 0)"/>
      <use xlink:href="#DejaVuSans-61" transform="translate(712.548828 0)"/>
      <use xlink:href="#DejaVuSans-6c" transform="translate(773.828125 0)"/>
      <use xlink:href="#DejaVuSans-79" transform="translate(801.611328 0)"/>
      <use xlink:href="#DejaVuSans-73" transform="translate(860.791016 0)"/>
      <use xlink:href="#DejaVuSans-69" transform="translate(912.890625 0)"/>
      <use xlink:href="#DejaVuSans-73" transform="translate(940.673828 0)"/>
      <use xlink:href="#DejaVuSans-20" transform="translate(992.773438 0)"/>
      <use xlink:href="#DejaVuSans-30" transform="translate(1024.560547 0)"/>
      <use xlink:href="#DejaVuSans-2e" transform="translate(1088.183594 0)"/>
      <use xlink:href="#DejaVuSans-30" transform="translate(1119.970703 0)"/>
      <use xlink:href="#DejaVuSans-25" transform="translate(1183.59375 0)"/>
      <use xlink:href="#DejaVuSans-20" transform="translate(1278.613281 0)"/>
      <use xlink:href="#DejaVuSans-28" transform="translate(1310.400391 0)"/>
      <use xlink:href="#DejaVuSans-30" transform="translate(1349.414062 0)"/>
      <use xlink:href="#DejaVuSans-29" transform="translate(1413.037109 0)"/>
     </g>
    </g>
    <g id="patch_17">
     <path d="M 438.12 82.147813 
L 458.12 82.147813 
L 458.12 75.147813 
L 438.12 75.147813 
z
" style="fill: #ff7f0e"/>
    </g>
    <g id="text_12">
     <!-- structural-statement-coverage 0.0% (0) -->
     <g transform="translate(466.12 82.147813) scale(0.1 -0.1)">
      <defs>
       <path id="DejaVuSans-76" d="M 191 3500 
L 800 3500 
L 1894 563 
L 2988 3500 
L 3597 3500 
L 2284 0 
L 1503 0 
L 191 3500 
z
" transform="scale(0.015625)"/>
      </defs>
      <use xlink:href="#DejaVuSans-73"/>
      <use xlink:href="#DejaVuSans-74" transform="translate(52.099609 0)"/>
      <use xlink:href="#DejaVuSans-72" transform="translate(91.308594 0)"/>
      <use xlink:href="#DejaVuSans-75" transform="translate(132.421875 0)"/>
      <use xlink:href="#DejaVuSans-63" transform="translate(195.800781 0)"/>
      <use xlink:href="#DejaVuSans-74" transform="translate(250.78125 0)"/>
      <use xlink:href="#DejaVuSans-75" transform="translate(289.990234 0)"/>
      <use xlink:href="#DejaVuSans-72" transform="translate(353.369141 0)"/>
      <use xlink:href="#DejaVuSans-61" transform="translate(394.482422 0)"/>
      <use xlink:href="#DejaVuSans-6c" transform="translate(455.761719 0)"/>
      <use xlink:href="#DejaVuSans-2d" transform="translate(483.544922 0)"/>
      <use xlink:href="#DejaVuSans-73" transform="translate(519.628906 0)"/>
      <use xlink:href="#DejaVuSans-74" transform="translate(571.728516 0)"/>
      <use xlink:href="#DejaVuSans-61" transform="translate(610.9375 0)"/>
      <use xlink:href="#DejaVuSans-74" transform="translate(672.216797 0)"/>
      <use xlink:href="#DejaVuSans-65" transform="translate(711.425781 0)"/>
      <use xlink:href="#DejaVuSans-6d" transform="translate(772.949219 0)"/>
      <use xlink:href="#DejaVuSans-65" transform="translate(870.361328 0)"/>
      <use xlink:href="#DejaVuSans-6e" transform="translate(931.884766 0)"/>
      <use xlink:href="#DejaVuSans-74" transform="translate(995.263672 0)"/>
      <use xlink:href="#DejaVuSans-2d" transform="translate(1034.472656 0)"/>
      <use xlink:href="#DejaVuSans-63" transform="translate(1070.556641 0)"/>
      <use xlink:href="#DejaVuSans-6f" transform="translate(1125.537109 0)"/>
      <use xlink:href="#DejaVuSans-76" transform="translate(1186.71875 0)"/>
      <use xlink:href="#DejaVuSans-65" transform="translate(1245.898438 0)"/>
      <use xlink:href="#DejaVuSans-72" transform="translate(1307.421875 0)"/>
      <use xlink:href="#DejaVuSans-61" transform="translate(1348.535156 0)"/>
      <use xlink:href="#DejaVuSans-67" transform="translate(1409.814453 0)"/>
      <use xlink:href="#DejaVuSans-65" transform="translate(1473.291016 0)"/>
      <use xlink:href="#DejaVuSans-20" transform="translate(1534.814453 0)"/>
      <use xlink:href="#DejaVuSans-30" transform="translate(1566.601562 0)"/>
      <use xlink:href="#DejaVuSans-2e" transform="translate(1630.224609 0)"/>
      <use xlink:href="#DejaVuSans-30" transform="translate(1662.011719 0)"/>
      <use xlink:href="#DejaVuSans-25" transform="translate(1725.634766 0)"/>
      <use xlink:href="#DejaVuSans-20" transform="translate(1820.654297 0)"/>
      <use xlink:href="#DejaVuSans-28" transform="translate(1852.441406 0)"/>
      <use xlink:href="#DejaVuSans-30" transform="translate(1891.455078 0)"/>
      <use xlink:href="#DejaVuSans-29" transform="translate(1955.078125 0)"/>
     </g>
    </g>
    <g id="patch_18">
     <path d="M 438.12 96.825938 
L 458.12 96.825938 
L 458.12 89.825938 
L 438.12 89.825938 
z
" style="fill: #2ca02c"/>
    </g>
    <g id="text_13">
     <!-- structural-branch-coverage 0.0% (0) -->
     <g transform="translate(466.12 96.825938) scale(0.1 -0.1)">
      <defs>
       <path id="DejaVuSans-68" d="M 3513 2113 
L 3513 0 
L 2938 0 
L 2938 2094 
Q 2938 2591 2744 2837 
Q 2550 3084 2163 3084 
Q 1697 3084 1428 2787 
Q 1159 2491 1159 1978 
L 1159 0 
L 581 0 
L 581 4863 
L 1159 4863 
L 1159 2956 
Q 1366 3272 1645 3428 
Q 1925 3584 2291 3584 
Q 2894 3584 3203 3211 
Q 3513 2838 3513 2113 
z
" transform="scale(0.015625)"/>
      </defs>
      <use xlink:href="#DejaVuSans-73"/>
      <use xlink:href="#DejaVuSans-74" transform="translate(52.099609 0)"/>
      <use xlink:href="#DejaVuSans-72" transform="translate(91.308594 0)"/>
      <use xlink:href="#DejaVuSans-75" transform="translate(132.421875 0)"/>
      <use xlink:href="#DejaVuSans-63" transform="translate(195.800781 0)"/>
      <use xlink:href="#DejaVuSans-74" transform="translate(250.78125 0)"/>
      <use xlink:href="#DejaVuSans-75" transform="translate(289.990234 0)"/>
      <use xlink:href="#DejaVuSans-72" transform="translate(353.369141 0)"/>
      <use xlink:href="#DejaVuSans-61" transform="translate(394.482422 0)"/>
      <use xlink:href="#DejaVuSans-6c" transform="translate(455.761719 0)"/>
      <use xlink:href="#DejaVuSans-2d" transform="translate(483.544922 0)"/>
      <use xlink:href="#DejaVuSans-62" transform="translate(519.628906 0)"/>
      <use xlink:href="#DejaVuSans-72" transform="translate(583.105469 0)"/>
      <use xlink:href="#DejaVuSans-61" transform="translate(624.21875 0)"/>
      <use xlink:href="#DejaVuSans-6e" transform="translate(685.498047 0)"/>
      <use xlink:href="#DejaVuSans-63" transform="translate(748.876953 0)"/>
      <use xlink:href="#DejaVuSans-68" transform="translate(803.857422 0)"/>
      <use xlink:href="#DejaVuSans-2d" transform="translate(867.236328 0)"/>
      <use xlink:href="#DejaVuSans-63" transform="translate(903.320312 0)"/>
      <use xlink:href="#DejaVuSans-6f" transform="translate(958.300781 0)"/>
      <use xlink:href="#DejaVuSans-76" transform="translate(1019.482422 0)"/>
      <use xlink:href="#DejaVuSans-65" transform="translate(1078.662109 0)"/>
      <use xlink:href="#DejaVuSans-72" transform="translate(1140.185547 0)"/>
      <use xlink:href="#DejaVuSans-61" transform="translate(1181.298828 0)"/>
      <use xlink:href="#DejaVuSans-67" transform="translate(1242.578125 0)"/>
      <use xlink:href="#DejaVuSans-65" transform="translate(1306.054688 0)"/>
      <use xlink:href="#DejaVuSans-20" transform="translate(1367.578125 0)"/>
      <use xlink:href="#DejaVuSans-30" transform="translate(1399.365234 0)"/>
      <use xlink:href="#DejaVuSans-2e" transform="translate(1462.988281 0)"/>
      <use xlink:href="#DejaVuSans-30" transform="translate(1494.775391 0)"/>
      <use xlink:href="#DejaVuSans-25" transform="translate(1558.398438 0)"/>
      <use xlink:href="#DejaVuSans-20" transform="translate(1653.417969 0)"/>
      <use xlink:href="#DejaVuSans-28" transform="translate(1685.205078 0)"/>
      <use xlink:href="#DejaVuSans-30" transform="translate(1724.21875 0)"/>
      <use xlink:href="#DejaVuSans-29" transform="translate(1787.841797 0)"/>
     </g>
    </g>
    <g id="patch_19">
     <path d="M 438.12 111.504063 
L 458.12 111.504063 
L 458.12 104.504063 
L 438.12 104.504063 
z
" style="fill: #d62728"/>
    </g>
    <g id="text_14">
     <!-- walkthrough 0.0% (0) -->
     <g transform="translate(466.12 111.504063) scale(0.1 -0.1)">
      <defs>
       <path id="DejaVuSans-77" d="M 269 3500 
L 844 3500 
L 1563 769 
L 2278 3500 
L 2956 3500 
L 3675 769 
L 4391 3500 
L 4966 3500 
L 4050 0 
L 3372 0 
L 2619 2869 
L 1863 0 
L 1184 0 
L 269 3500 
z
" transform="scale(0.015625)"/>
       <path id="DejaVuSans-6b" d="M 581 4863 
L 1159 4863 
L 1159 1991 
L 2875 3500 
L 3609 3500 
L 1753 1863 
L 3688 0 
L 2938 0 
L 1159 1709 
L 1159 0 
L 581 0 
L 581 4863 
z
" transform="scale(0.015625)"/>
      </defs>
      <use xlink:href="#DejaVuSans-77"/>
      <use xlink:href="#DejaVuSans-61" transform="translate(81.787109 0)"/>
      <use xlink:href="#DejaVuSans-6c" transform="translate(143.066406 0)"/>
      <use xlink:href="#DejaVuSans-6b" transform="translate(170.849609 0)"/>
      <use xlink:href="#DejaVuSans-74" transform="translate(228.759766 0)"/>
      <use xlink:href="#DejaVuSans-68" transform="translate(267.96875 0)"/>
      <use xlink:href="#DejaVuSans-72" transform="translate(331.347656 0)"/>
      <use xlink:href="#DejaVuSans-6f" transform="translate(370.210938 0)"/>
      <use xlink:href="#DejaVuSans-75" transform="translate(431.392578 0)"/>
      <use xlink:href="#DejaVuSans-67" transform="translate(494.771484 0)"/>
      <use xlink:href="#DejaVuSans-68" transform="translate(558.248047 0)"/>
      <use xlink:href="#DejaVuSans-20" transform="translate(621.626953 0)"/>
      <use xlink:href="#DejaVuSans-30" transform="translate(653.414062 0)"/>
      <use xlink:href="#DejaVuSans-2e" transform="translate(717.037109 0)"/>
      <use xlink:href="#DejaVuSans-30" transform="translate(748.824219 0)"/>
      <use xlink:href="#DejaVuSans-25" transform="translate(812.447266 0)"/>
      <use xlink:href="#DejaVuSans-20" transform="translate(907.466797 0)"/>
      <use xlink:href="#DejaVuSans-28" transform="translate(939.253906 0)"/>
      <use xlink:href="#DejaVuSans-30" transform="translate(978.267578 0)"/>
      <use xlink:href="#DejaVuSans-29" transform="translate(1041.890625 0)"/>
     </g>
    </g>
    <g id="patch_20">
     <path d="M 438.12 126.182188 
L 458.12 126.182188 
L 458.12 119.182188 
L 438.12 119.182188 
z
" style="fill: #9467bd"/>
    </g>
    <g id="text_15">
     <!-- inspection 8.6% (8) -->
     <g transform="translate(466.12 126.182188) scale(0.1 -0.1)">
      <defs>
       <path id="DejaVuSans-38" d="M 2034 2216 
Q 1584 2216 1326 1975 
Q 1069 1734 1069 1313 
Q 1069 891 1326 650 
Q 1584 409 2034 409 
Q 2484 409 2743 651 
Q 3003 894 3003 1313 
Q 3003 1734 2745 1975 
Q 2488 2216 2034 2216 
z
M 1403 2484 
Q 997 2584 770 2862 
Q 544 3141 544 3541 
Q 544 4100 942 4425 
Q 1341 4750 2034 4750 
Q 2731 4750 3128 4425 
Q 3525 4100 3525 3541 
Q 3525 3141 3298 2862 
Q 3072 2584 2669 2484 
Q 3125 2378 3379 2068 
Q 3634 1759 3634 1313 
Q 3634 634 3220 271 
Q 2806 -91 2034 -91 
Q 1263 -91 848 271 
Q 434 634 434 1313 
Q 434 1759 690 2068 
Q 947 2378 1403 2484 
z
M 1172 3481 
Q 1172 3119 1398 2916 
Q 1625 2713 2034 2713 
Q 2441 2713 2670 2916 
Q 2900 3119 2900 3481 
Q 2900 3844 2670 4047 
Q 2441 4250 2034 4250 
Q 1625 4250 1398 4047 
Q 1172 3844 1172 3481 
z
" transform="scale(0.015625)"/>
       <path id="DejaVuSans-36" d="M 2113 2584 
Q 1688 2584 1439 2293 
Q 1191 2003 1191 1497 
Q 1191 994 1439 701 
Q 1688 409 2113 409 
Q 2538 409 2786 701 
Q 3034 994 3034 1497 
Q 3034 2003 2786 2293 
Q 2538 2584 2113 2584 
z
M 3366 4563 
L 3366 3988 
Q 3128 4100 2886 4159 
Q 2644 4219 2406 4219 
Q 1781 4219 1451 3797 
Q 1122 3375 1075 2522 
Q 1259 2794 1537 2939 
Q 1816 3084 2150 3084 
Q 2853 3084 3261 2657 
Q 3669 2231 3669 1497 
Q 3669 778 3244 343 
Q 2819 -91 2113 -91 
Q 1303 -91 875 529 
Q 447 1150 447 2328 
Q 447 3434 972 4092 
Q 1497 4750 2381 4750 
Q 2619 4750 2861 4703 
Q 3103 4656 3366 4563 
z
" transform="scale(0.015625)"/>
      </defs>
      <use xlink:href="#DejaVuSans-69"/>
      <use xlink:href="#DejaVuSans-6e" transform="translate(27.783203 0)"/>
      <use xlink:href="#DejaVuSans-73" transform="translate(91.162109 0)"/>
      <use xlink:href="#DejaVuSans-70" transform="translate(143.261719 0)"/>
      <use xlink:href="#DejaVuSans-65" transform="translate(206.738281 0)"/>
      <use xlink:href="#DejaVuSans-63" transform="translate(268.261719 0)"/>
      <use xlink:href="#DejaVuSans-74" transform="translate(323.242188 0)"/>
      <use xlink:href="#DejaVuSans-69" transform="translate(362.451172 0)"/>
      <use xlink:href="#DejaVuSans-6f" transform="translate(390.234375 0)"/>
      <use xlink:href="#DejaVuSans-6e" transform="translate(451.416016 0)"/>
      <use xlink:href="#DejaVuSans-20" transform="translate(514.794922 0)"/>
      <use xlink:href="#DejaVuSans-38" transform="translate(546.582031 0)"/>
      <use xlink:href="#DejaVuSans-2e" transform="translate(610.205078 0)"/>
      <use xlink:href="#DejaVuSans-36" transform="translate(641.992188 0)"/>
      <use xlink:href="#DejaVuSans-25" transform="translate(705.615234 0)"/>
      <use xlink:href="#DejaVuSans-20" transform="translate(800.634766 0)"/>
      <use xlink:href="#DejaVuSans-28" transform="translate(832.421875 0)"/>
      <use xlink:href="#DejaVuSans-38" transform="translate(871.435547 0)"/>
      <use xlink:href="#DejaVuSans-29" transform="translate(935.058594 0)"/>
     </g>
    </g>
    <g id="patch_21">
     <path d="M 438.12 140.860313 
L 458.12 140.860313 
L 458.12 133.860313 
L 438.12 133.860313 
z
" style="fill: #8c564b"/>
    </g>
    <g id="text_16">
     <!-- interface-test 23.7% (22) -->
     <g transform="translate(466.12 140.860313) scale(0.1 -0.1)">
      <defs>
       <path id="DejaVuSans-32" d="M 1228 531 
L 3431 531 
L 3431 0 
L 469 0 
L 469 531 
Q 828 903 1448 1529 
Q 2069 2156 2228 2338 
Q 2531 2678 2651 2914 
Q 2772 3150 2772 3378 
Q 2772 3750 2511 3984 
Q 2250 4219 1831 4219 
Q 1534 4219 1204 4116 
Q 875 4013 500 3803 
L 500 4441 
Q 881 4594 1212 4672 
Q 1544 4750 1819 4750 
Q 2544 4750 2975 4387 
Q 3406 4025 3406 3419 
Q 3406 3131 3298 2873 
Q 3191 2616 2906 2266 
Q 2828 2175 2409 1742 
Q 1991 1309 1228 531 
z
" transform="scale(0.015625)"/>
       <path id="DejaVuSans-33" d="M 2597 2516 
Q 3050 2419 3304 2112 
Q 3559 1806 3559 1356 
Q 3559 666 3084 287 
Q 2609 -91 1734 -91 
Q 1441 -91 1130 -33 
Q 819 25 488 141 
L 488 750 
Q 750 597 1062 519 
Q 1375 441 1716 441 
Q 2309 441 2620 675 
Q 2931 909 2931 1356 
Q 2931 1769 2642 2001 
Q 2353 2234 1838 2234 
L 1294 2234 
L 1294 2753 
L 1863 2753 
Q 2328 2753 2575 2939 
Q 2822 3125 2822 3475 
Q 2822 3834 2567 4026 
Q 2313 4219 1838 4219 
Q 1578 4219 1281 4162 
Q 984 4106 628 3988 
L 628 4550 
Q 988 4650 1302 4700 
Q 1616 4750 1894 4750 
Q 2613 4750 3031 4423 
Q 3450 4097 3450 3541 
Q 3450 3153 3228 2886 
Q 3006 2619 2597 2516 
z
" transform="scale(0.015625)"/>
       <path id="DejaVuSans-37" d="M 525 4666 
L 3525 4666 
L 3525 4397 
L 1831 0 
L 1172 0 
L 2766 4134 
L 525 4134 
L 525 4666 
z
" transform="scale(0.015625)"/>
      </defs>
      <use xlink:href="#DejaVuSans-69"/>
      <use xlink:href="#DejaVuSans-6e" transform="translate(27.783203 0)"/>
      <use xlink:href="#DejaVuSans-74" transform="translate(91.162109 0)"/>
      <use xlink:href="#DejaVuSans-65" transform="translate(130.371094 0)"/>
      <use xlink:href="#DejaVuSans-72" transform="translate(191.894531 0)"/>
      <use xlink:href="#DejaVuSans-66" transform="translate(233.007812 0)"/>
      <use xlink:href="#DejaVuSans-61" transform="translate(268.212891 0)"/>
      <use xlink:href="#DejaVuSans-63" transform="translate(329.492188 0)"/>
      <use xlink:href="#DejaVuSans-65" transform="translate(384.472656 0)"/>
      <use xlink:href="#DejaVuSans-2d" transform="translate(445.996094 0)"/>
      <use xlink:href="#DejaVuSans-74" transform="translate(482.080078 0)"/>
      <use xlink:href="#DejaVuSans-65" transform="translate(521.289062 0)"/>
      <use xlink:href="#DejaVuSans-73" transform="translate(582.8125 0)"/>
      <use xlink:href="#DejaVuSans-74" transform="translate(634.912109 0)"/>
      <use xlink:href="#DejaVuSans-20" transform="translate(674.121094 0)"/>
      <use xlink:href="#DejaVuSans-32" transform="translate(705.908203 0)"/>
      <use xlink:href="#DejaVuSans-33" transform="translate(769.53125 0)"/>
      <use xlink:href="#DejaVuSans-2e" transform="translate(833.154297 0)"/>
      <use xlink:href="#DejaVuSans-37" transform="translate(864.941406 0)"/>
      <use xlink:href="#DejaVuSans-25" transform="translate(928.564453 0)"/>
      <use xlink:href="#DejaVuSans-20" transform="translate(1023.583984 0)"/>
      <use xlink:href="#DejaVuSans-28" transform="translate(1055.371094 0)"/>
      <use xlink:href="#DejaVuSans-32" transform="translate(1094.384766 0)"/>
      <use xlink:href="#DejaVuSans-32" transform="translate(1158.007812 0)"/>
      <use xlink:href="#DejaVuSans-29" transform="translate(1221.630859 0)"/>
     </g>
    </g>
    <g id="patch_22">
     <path d="M 438.12 155.538438 
L 458.12 155.538438 
L 458.12 148.538438 
L 438.12 148.538438 
z
" style="fill: #e377c2"/>
    </g>
    <g id="text_17">
     <!-- requirements-based 57.0% (53) -->
     <g transform="translate(466.12 155.538438) scale(0.1 -0.1)">
      <defs>
       <path id="DejaVuSans-35" d="M 691 4666 
L 3169 4666 
L 3169 4134 
L 1269 4134 
L 1269 2991 
Q 1406 3038 1543 3061 
Q 1681 3084 1819 3084 
Q 2600 3084 3056 2656 
Q 3513 2228 3513 1497 
Q 3513 744 3044 326 
Q 2575 -91 1722 -91 
Q 1428 -91 1123 -41 
Q 819 9 494 109 
L 494 744 
Q 775 591 1075 516 
Q 1375 441 1709 441 
Q 2250 441 2565 725 
Q 2881 1009 2881 1497 
Q 2881 1984 2565 2268 
Q 2250 2553 1709 2553 
Q 1456 2553 1204 2497 
Q 953 2441 691 2322 
L 691 4666 
z
" transform="scale(0.015625)"/>
      </defs>
      <use xlink:href="#DejaVuSans-72"/>
      <use xlink:href="#DejaVuSans-65" transform="translate(38.863281 0)"/>
      <use xlink:href="#DejaVuSans-71" transform="translate(100.386719 0)"/>
      <use xlink:href="#DejaVuSans-75" transform="translate(163.863281 0)"/>
      <use xlink:href="#DejaVuSans-69" transform="translate(227.242188 0)"/>
      <use xlink:href="#DejaVuSans-72" transform="translate(255.025391 0)"/>
      <use xlink:href="#DejaVuSans-65" transform="translate(293.888672 0)"/>
      <use xlink:href="#DejaVuSans-6d" transform="translate(355.412109 0)"/>
      <use xlink:href="#DejaVuSans-65" transform="translate(452.824219 0)"/>
      <use xlink:href="#DejaVuSans-6e" transform="translate(514.347656 0)"/>
      <use xlink:href="#DejaVuSans-74" transform="translate(577.726562 0)"/>
      <use xlink:href="#DejaVuSans-73" transform="translate(616.935547 0)"/>
      <use xlink:href="#DejaVuSans-2d" transform="translate(669.035156 0)"/>
      <use xlink:href="#DejaVuSans-62" transform="translate(705.119141 0)"/>
      <use xlink:href="#DejaVuSans-61" transform="translate(768.595703 0)"/>
      <use xlink:href="#DejaVuSans-73" transform="translate(829.875 0)"/>
      <use xlink:href="#DejaVuSans-65" transform="translate(881.974609 0)"/>
      <use xlink:href="#DejaVuSans-64" transform="translate(943.498047 0)"/>
      <use xlink:href="#DejaVuSans-20" transform="translate(1006.974609 0)"/>
      <use xlink:href="#DejaVuSans-35" transform="translate(1038.761719 0)"/>
      <use xlink:href="#DejaVuSans-37" transform="translate(1102.384766 0)"/>
      <use xlink:href="#DejaVuSans-2e" transform="translate(1166.007812 0)"/>
      <use xlink:href="#DejaVuSans-30" transform="translate(1197.794922 0)"/>
      <use xlink:href="#DejaVuSans-25" transform="translate(1261.417969 0)"/>
      <use xlink:href="#DejaVuSans-20" transform="translate(1356.4375 0)"/>
      <use xlink:href="#DejaVuSans-28" transform="translate(1388.224609 0)"/>
      <use xlink:href="#DejaVuSans-35" transform="translate(1427.238281 0)"/>
      <use xlink:href="#DejaVuSans-33" transform="translate(1490.861328 0)"/>
      <use xlink:href="#DejaVuSans-29" transform="translate(1554.484375 0)"/>
     </g>
    </g>
    <g id="patch_23">
     <path d="M 438.12 170.216563 
L 458.12 170.216563 
L 458.12 163.216563 
L 438.12 163.216563 
z
" style="fill: #7f7f7f"/>
    </g>
    <g id="text_18">
     <!-- resource-usage 0.0% (0) -->
     <g transform="translate(466.12 170.216563) scale(0.1 -0.1)">
      <use xlink:href="#DejaVuSans-72"/>
      <use xlink:href="#DejaVuSans-65" transform="translate(38.863281 0)"/>
      <use xlink:href="#DejaVuSans-73" transform="translate(100.386719 0)"/>
      <use xlink:href="#DejaVuSans-6f" transform="translate(152.486328 0)"/>
      <use xlink:href="#DejaVuSans-75" transform="translate(213.667969 0)"/>
      <use xlink:href="#DejaVuSans-72" transform="translate(277.046875 0)"/>
      <use xlink:href="#DejaVuSans-63" transform="translate(315.910156 0)"/>
      <use xlink:href="#DejaVuSans-65" transform="translate(370.890625 0)"/>
      <use xlink:href="#DejaVuSans-2d" transform="translate(432.414062 0)"/>
      <use xlink:href="#DejaVuSans-75" transform="translate(468.498047 0)"/>
      <use xlink:href="#DejaVuSans-73" transform="translate(531.876953 0)"/>
      <use xlink:href="#DejaVuSans-61" transform="translate(583.976562 0)"/>
      <use xlink:href="#DejaVuSans-67" transform="translate(645.255859 0)"/>
      <use xlink:href="#DejaVuSans-65" transform="translate(708.732422 0)"/>
      <use xlink:href="#DejaVuSans-20" transform="translate(770.255859 0)"/>
      <use xlink:href="#DejaVuSans-30" transform="translate(802.042969 0)"/>
      <use xlink:href="#DejaVuSans-2e" transform="translate(865.666016 0)"/>
      <use xlink:href="#DejaVuSans-30" transform="translate(897.453125 0)"/>
      <use xlink:href="#DejaVuSans-25" transform="translate(961.076172 0)"/>
      <use xlink:href="#DejaVuSans-20" transform="translate(1056.095703 0)"/>
      <use xlink:href="#DejaVuSans-28" transform="translate(1087.882812 0)"/>
      <use xlink:href="#DejaVuSans-30" transform="translate(1126.896484 0)"/>
      <use xlink:href="#DejaVuSans-29" transform="translate(1190.519531 0)"/>
     </g>
    </g>
    <g id="patch_24">
     <path d="M 438.12 184.894688 
L 458.12 184.894688 
L 458.12 177.894688 
L 438.12 177.894688 
z
" style="fill: #bcbd22"/>
    </g>
    <g id="text_19">
     <!-- control-flow-analysis 4.3% (4) -->
     <g transform="translate(466.12 184.894688) scale(0.1 -0.1)">
      <defs>
       <path id="DejaVuSans-34" d="M 2419 4116 
L 825 1625 
L 2419 1625 
L 2419 4116 
z
M 2253 4666 
L 3047 4666 
L 3047 1625 
L 3713 1625 
L 3713 1100 
L 3047 1100 
L 3047 0 
L 2419 0 
L 2419 1100 
L 313 1100 
L 313 1709 
L 2253 4666 
z
" transform="scale(0.015625)"/>
      </defs>
      <use xlink:href="#DejaVuSans-63"/>
      <use xlink:href="#DejaVuSans-6f" transform="translate(54.980469 0)"/>
      <use xlink:href="#DejaVuSans-6e" transform="translate(116.162109 0)"/>
      <use xlink:href="#DejaVuSans-74" transform="translate(179.541016 0)"/>
      <use xlink:href="#DejaVuSans-72" transform="translate(218.75 0)"/>
      <use xlink:href="#DejaVuSans-6f" transform="translate(257.613281 0)"/>
      <use xlink:href="#DejaVuSans-6c" transform="translate(318.794922 0)"/>
      <use xlink:href="#DejaVuSans-2d" transform="translate(346.578125 0)"/>
      <use xlink:href="#DejaVuSans-66" transform="translate(382.662109 0)"/>
      <use xlink:href="#DejaVuSans-6c" transform="translate(417.867188 0)"/>
      <use xlink:href="#DejaVuSans-6f" transform="translate(445.650391 0)"/>
      <use xlink:href="#DejaVuSans-77" transform="translate(506.832031 0)"/>
      <use xlink:href="#DejaVuSans-2d" transform="translate(588.619141 0)"/>
      <use xlink:href="#DejaVuSans-61" transform="translate(624.703125 0)"/>
      <use xlink:href="#DejaVuSans-6e" transform="translate(685.982422 0)"/>
      <use xlink:href="#DejaVuSans-61" transform="translate(749.361328 0)"/>
      <use xlink:href="#DejaVuSans-6c" transform="translate(810.640625 0)"/>
      <use xlink:href="#DejaVuSans-79" transform="translate(838.423828 0)"/>
      <use xlink:href="#DejaVuSans-73" transform="translate(897.603516 0)"/>
      <use xlink:href="#DejaVuSans-69" transform="translate(949.703125 0)"/>
      <use xlink:href="#DejaVuSans-73" transform="translate(977.486328 0)"/>
      <use xlink:href="#DejaVuSans-20" transform="translate(1029.585938 0)"/>
      <use xlink:href="#DejaVuSans-34" transform="translate(1061.373047 0)"/>
      <use xlink:href="#DejaVuSans-2e" transform="translate(1124.996094 0)"/>
      <use xlink:href="#DejaVuSans-33" transform="translate(1156.783203 0)"/>
      <use xlink:href="#DejaVuSans-25" transform="translate(1220.40625 0)"/>
      <use xlink:href="#DejaVuSans-20" transform="translate(1315.425781 0)"/>
      <use xlink:href="#DejaVuSans-28" transform="translate(1347.212891 0)"/>
      <use xlink:href="#DejaVuSans-34" transform="translate(1386.226562 0)"/>
      <use xlink:href="#DejaVuSans-29" transform="translate(1449.849609 0)"/>
     </g>
    </g>
    <g id="patch_25">
     <path d="M 438.12 199.572812 
L 458.12 199.572812 
L 458.12 192.572812 
L 438.12 192.572812 
z
" style="fill: #17becf"/>
    </g>
    <g id="text_20">
     <!-- data-flow-analysis 0.0% (0) -->
     <g transform="translate(466.12 199.572812) scale(0.1 -0.1)">
      <use xlink:href="#DejaVuSans-64"/>
      <use xlink:href="#DejaVuSans-61" transform="translate(63.476562 0)"/>
      <use xlink:href="#DejaVuSans-74" transform="translate(124.755859 0)"/>
      <use xlink:href="#DejaVuSans-61" transform="translate(163.964844 0)"/>
      <use xlink:href="#DejaVuSans-2d" transform="translate(225.244141 0)"/>
      <use xlink:href="#DejaVuSans-66" transform="translate(261.328125 0)"/>
      <use xlink:href="#DejaVuSans-6c" transform="translate(296.533203 0)"/>
      <use xlink:href="#DejaVuSans-6f" transform="translate(324.316406 0)"/>
      <use xlink:href="#DejaVuSans-77" transform="translate(385.498047 0)"/>
      <use xlink:href="#DejaVuSans-2d" transform="translate(467.285156 0)"/>
      <use xlink:href="#DejaVuSans-61" transform="translate(503.369141 0)"/>
      <use xlink:href="#DejaVuSans-6e" transform="translate(564.648438 0)"/>
      <use xlink:href="#DejaVuSans-61" transform="translate(628.027344 0)"/>
      <use xlink:href="#DejaVuSans-6c" transform="translate(689.306641 0)"/>
      <use xlink:href="#DejaVuSans-79" transform="translate(717.089844 0)"/>
      <use xlink:href="#DejaVuSans-73" transform="translate(776.269531 0)"/>
      <use xlink:href="#DejaVuSans-69" transform="translate(828.369141 0)"/>
      <use xlink:href="#DejaVuSans-73" transform="translate(856.152344 0)"/>
      <use xlink:href="#DejaVuSans-20" transform="translate(908.251953 0)"/>
      <use xlink:href="#DejaVuSans-30" transform="translate(940.039062 0)"/>
      <use xlink:href="#DejaVuSans-2e" transform="translate(1003.662109 0)"/>
      <use xlink:href="#DejaVuSans-30" transform="translate(1035.449219 0)"/>
      <use xlink:href="#DejaVuSans-25" transform="translate(1099.072266 0)"/>
      <use xlink:href="#DejaVuSans-20" transform="translate(1194.091797 0)"/>
      <use xlink:href="#DejaVuSans-28" transform="translate(1225.878906 0)"/>
      <use xlink:href="#DejaVuSans-30" transform="translate(1264.892578 0)"/>
      <use xlink:href="#DejaVuSans-29" transform="translate(1328.515625 0)"/>
     </g>
    </g>
    <g id="patch_26">
     <path d="M 438.12 214.250937 
L 458.12 214.250937 
L 458.12 207.250937 
L 438.12 207.250937 
z
" style="fill: #1f77b4"/>
    </g>
    <g id="text_21">
     <!-- fault-injection 6.5% (6) -->
     <g transform="translate(466.12 214.250937) scale(0.1 -0.1)">
      <use xlink:href="#DejaVuSans-66"/>
      <use xlink:href="#DejaVuSans-61" transform="translate(35.205078 0)"/>
      <use xlink:href="#DejaVuSans-75" transform="translate(96.484375 0)"/>
      <use xlink:href="#DejaVuSans-6c" transform="translate(159.863281 0)"/>
      <use xlink:href="#DejaVuSans-74" transform="translate(187.646484 0)"/>
      <use xlink:href="#DejaVuSans-2d" transform="translate(226.855469 0)"/>
      <use xlink:href="#DejaVuSans-69" transform="translate(262.939453 0)"/>
      <use xlink:href="#DejaVuSans-6e" transform="translate(290.722656 0)"/>
      <use xlink:href="#DejaVuSans-6a" transform="translate(354.101562 0)"/>
      <use xlink:href="#DejaVuSans-65" transform="translate(381.884766 0)"/>
      <use xlink:href="#DejaVuSans-63" transform="translate(443.408203 0)"/>
      <use xlink:href="#DejaVuSans-74" transform="translate(498.388672 0)"/>
      <use xlink:href="#DejaVuSans-69" transform="translate(537.597656 0)"/>
      <use xlink:href="#DejaVuSans-6f" transform="translate(565.380859 0)"/>
      <use xlink:href="#DejaVuSans-6e" transform="translate(626.5625 0)"/>
      <use xlink:href="#DejaVuSans-20" transform="translate(689.941406 0)"/>
      <use xlink:href="#DejaVuSans-36" transform="translate(721.728516 0)"/>
      <use xlink:href="#DejaVuSans-2e" transform="translate(785.351562 0)"/>
      <use xlink:href="#DejaVuSans-35" transform="translate(817.138672 0)"/>
      <use xlink:href="#DejaVuSans-25" transform="translate(880.761719 0)"/>
      <use xlink:href="#DejaVuSans-20" transform="translate(975.78125 0)"/>
      <use xlink:href="#DejaVuSans-28" transform="translate(1007.568359 0)"/>
      <use xlink:href="#DejaVuSans-36" transform="translate(1046.582031 0)"/>
      <use xlink:href="#DejaVuSans-29" transform="translate(1110.205078 0)"/>
     </g>
    </g>
    <g id="patch_27">
     <path d="M 438.12 228.929062 
L 458.12 228.929062 
L 458.12 221.929062 
L 438.12 221.929062 
z
" style="fill: #ff7f0e"/>
    </g>
    <g id="text_22">
     <!-- struct-func-cov 0.0% (0) -->
     <g transform="translate(466.12 228.929062) scale(0.1 -0.1)">
      <use xlink:href="#DejaVuSans-73"/>
      <use xlink:href="#DejaVuSans-74" transform="translate(52.099609 0)"/>
      <use xlink:href="#DejaVuSans-72" transform="translate(91.308594 0)"/>
      <use xlink:href="#DejaVuSans-75" transform="translate(132.421875 0)"/>
      <use xlink:href="#DejaVuSans-63" transform="translate(195.800781 0)"/>
      <use xlink:href="#DejaVuSans-74" transform="translate(250.78125 0)"/>
      <use xlink:href="#DejaVuSans-2d" transform="translate(289.990234 0)"/>
      <use xlink:href="#DejaVuSans-66" transform="translate(326.074219 0)"/>
      <use xlink:href="#DejaVuSans-75" transform="translate(361.279297 0)"/>
      <use xlink:href="#DejaVuSans-6e" transform="translate(424.658203 0)"/>
      <use xlink:href="#DejaVuSans-63" transform="translate(488.037109 0)"/>
      <use xlink:href="#DejaVuSans-2d" transform="translate(543.017578 0)"/>
      <use xlink:href="#DejaVuSans-63" transform="translate(579.101562 0)"/>
      <use xlink:href="#DejaVuSans-6f" transform="translate(634.082031 0)"/>
      <use xlink:href="#DejaVuSans-76" transform="translate(695.263672 0)"/>
      <use xlink:href="#DejaVuSans-20" transform="translate(754.443359 0)"/>
      <use xlink:href="#DejaVuSans-30" transform="translate(786.230469 0)"/>
      <use xlink:href="#DejaVuSans-2e" transform="translate(849.853516 0)"/>
      <use xlink:href="#DejaVuSans-30" transform="translate(881.640625 0)"/>
      <use xlink:href="#DejaVuSans-25" transform="translate(945.263672 0)"/>
      <use xlink:href="#DejaVuSans-20" transform="translate(1040.283203 0)"/>
      <use xlink:href="#DejaVuSans-28" transform="translate(1072.070312 0)"/>
      <use xlink:href="#DejaVuSans-30" transform="translate(1111.083984 0)"/>
      <use xlink:href="#DejaVuSans-29" transform="translate(1174.707031 0)"/>
     </g>
    </g>
    <g id="patch_28">
     <path d="M 438.12 243.607187 
L 458.12 243.607187 
L 458.12 236.607187 
L 438.12 236.607187 
z
" style="fill: #2ca02c"/>
    </g>
    <g id="text_23">
     <!-- struct-call-cov 0.0% (0) -->
     <g transform="translate(466.12 243.607187) scale(0.1 -0.1)">
      <use xlink:href="#DejaVuSans-73"/>
      <use xlink:href="#DejaVuSans-74" transform="translate(52.099609 0)"/>
      <use xlink:href="#DejaVuSans-72" transform="translate(91.308594 0)"/>
      <use xlink:href="#DejaVuSans-75" transform="translate(132.421875 0)"/>
      <use xlink:href="#DejaVuSans-63" transform="translate(195.800781 0)"/>
      <use xlink:href="#DejaVuSans-74" transform="translate(250.78125 0)"/>
      <use xlink:href="#DejaVuSans-2d" transform="translate(289.990234 0)"/>
      <use xlink:href="#DejaVuSans-63" transform="translate(326.074219 0)"/>
      <use xlink:href="#DejaVuSans-61" transform="translate(381.054688 0)"/>
      <use xlink:href="#DejaVuSans-6c" transform="translate(442.333984 0)"/>
      <use xlink:href="#DejaVuSans-6c" transform="translate(470.117188 0)"/>
      <use xlink:href="#DejaVuSans-2d" transform="translate(497.900391 0)"/>
      <use xlink:href="#DejaVuSans-63" transform="translate(533.984375 0)"/>
      <use xlink:href="#DejaVuSans-6f" transform="translate(588.964844 0)"/>
      <use xlink:href="#DejaVuSans-76" transform="translate(650.146484 0)"/>
      <use xlink:href="#DejaVuSans-20" transform="translate(709.326172 0)"/>
      <use xlink:href="#DejaVuSans-30" transform="translate(741.113281 0)"/>
      <use xlink:href="#DejaVuSans-2e" transform="translate(804.736328 0)"/>
      <use xlink:href="#DejaVuSans-30" transform="translate(836.523438 0)"/>
      <use xlink:href="#DejaVuSans-25" transform="translate(900.146484 0)"/>
      <use xlink:href="#DejaVuSans-20" transform="translate(995.166016 0)"/>
      <use xlink:href="#DejaVuSans-28" transform="translate(1026.953125 0)"/>
      <use xlink:href="#DejaVuSans-30" transform="translate(1065.966797 0)"/>
      <use xlink:href="#DejaVuSans-29" transform="translate(1129.589844 0)"/>
     </g>
    </g>
   </g>
  </g>
 </g>
</svg>
